<svg xmlns="http://www.w3.org/2000/svg" width="1024" height="1024" viewBox="0 0 1024 1024" fill="none">
  <rect width="1024" height="1024" rx="220" fill="#F2E7D7"/>
  <rect x="88" y="88" width="848" height="848" rx="176" fill="url(#bg)" stroke="#D6C5AF" stroke-width="10"/>
  <ellipse cx="512" cy="792" rx="246" ry="82" fill="#000000" fill-opacity="0.14"/>
  <rect x="268" y="610" width="488" height="138" rx="64" fill="url(#base)" stroke="#111111" stroke-width="16"/>
  <rect x="320" y="656" width="384" height="28" rx="14" fill="#A9ACB3" fill-opacity="0.78"/>
  <circle cx="368" cy="680" r="18" fill="#F3F4F6"/>
  <circle cx="656" cy="680" r="18" fill="#F3F4F6"/>
  <path d="M315 540C315 415.184 416.184 314 541 314C665.816 314 767 415.184 767 540V578C767 600.091 749.091 618 727 618H355C332.909 618 315 600.091 315 578V540Z" fill="url(#dome)" stroke="#8F0C0C" stroke-width="18"/>
  <path d="M370 526C370 441.5 438.5 373 523 373C607.5 373 676 441.5 676 526" stroke="#FFB4B4" stroke-width="26" stroke-linecap="round" opacity="0.9"/>
  <ellipse cx="544" cy="448" rx="112" ry="70" fill="#FFD7D7" fill-opacity="0.72" transform="rotate(-18 544 448)"/>
  <path d="M315 562H767" stroke="#650808" stroke-width="14" stroke-linecap="round"/>
  <circle cx="512" cy="554" r="44" fill="#FFF5F5" fill-opacity="0.28"/>
  <path d="M404 284H620" stroke="#171717" stroke-width="28" stroke-linecap="round"/>
  <path d="M438 248H586" stroke="#171717" stroke-width="22" stroke-linecap="round"/>
  <path d="M372 276L282 226" stroke="#171717" stroke-width="22" stroke-linecap="round"/>
  <path d="M652 276L742 226" stroke="#171717" stroke-width="22" stroke-linecap="round"/>
  <path d="M247 768C271.667 744 296.333 744 321 768" stroke="#111111" stroke-width="18" stroke-linecap="round"/>
  <path d="M703 768C727.667 744 752.333 744 777 768" stroke="#111111" stroke-width="18" stroke-linecap="round"/>
  <defs>
    <linearGradient id="bg" x1="512" y1="88" x2="512" y2="936" gradientUnits="userSpaceOnUse">
      <stop stop-color="#FFF8EE"/>
      <stop offset="1" stop-color="#EADBC5"/>
    </linearGradient>
    <linearGradient id="base" x1="512" y1="610" x2="512" y2="748" gradientUnits="userSpaceOnUse">
      <stop stop-color="#3B3F46"/>
      <stop offset="1" stop-color="#111214"/>
    </linearGradient>
    <linearGradient id="dome" x1="541" y1="314" x2="541" y2="618" gradientUnits="userSpaceOnUse">
      <stop stop-color="#FF6A6A"/>
      <stop offset="0.55" stop-color="#E01D1D"/>
      <stop offset="1" stop-color="#9D0B0B"/>
    </linearGradient>
  </defs>
</svg>
